<svg width="68" height="68" viewBox="0 0 68 68" fill="none" xmlns="http://www.w3.org/2000/svg">
<path d="M34 67.3333C29.3889 67.3333 25.0556 66.4578 21 64.7067C16.9445 62.9555 13.4167 60.5811 10.4167 57.5833C7.41669 54.5833 5.04224 51.0555 3.29335 47C1.54447 42.9444 0.668909 38.6111 0.666687 34C0.666687 29.3889 1.54224 25.0555 3.29335 21C5.04447 16.9444 7.41891 13.4167 10.4167 10.4167C13.4167 7.41666 16.9445 5.04221 21 3.29332C25.0556 1.54443 29.3889 0.668879 34 0.666656C38.6111 0.666656 42.9445 1.54221 47 3.29332C51.0556 5.04443 54.5834 7.41888 57.5834 10.4167C60.5834 13.4167 62.9589 16.9444 64.71 21C66.4611 25.0555 67.3356 29.3889 67.3334 34C67.3334 38.6111 66.4578 42.9444 64.7067 47C62.9556 51.0555 60.5811 54.5833 57.5834 57.5833C54.5834 60.5833 51.0556 62.9589 47 64.71C42.9445 66.4611 38.6111 67.3355 34 67.3333ZM34 60.6667C41.4445 60.6667 47.75 58.0833 52.9167 52.9167C58.0833 47.75 60.6667 41.4444 60.6667 34C60.6667 26.5555 58.0833 20.25 52.9167 15.0833C47.75 9.91666 41.4445 7.33332 34 7.33332C26.5556 7.33332 20.25 9.91666 15.0834 15.0833C9.91669 20.25 7.33335 26.5555 7.33335 34C7.33335 41.4444 9.91669 47.75 15.0834 52.9167C20.25 58.0833 26.5556 60.6667 34 60.6667Z" fill="white"/>
<path d="M23.0514 26.102L27.8891 19.3971C28.2477 18.9012 28.7192 18.4979 29.2647 18.2206C29.8102 17.9433 30.4139 17.8 31.0259 17.8026L39.9575 17.8487L39.9759 17.8491C44.5859 17.939 48.1079 18.7792 50.3125 22.5868C52.365 26.1311 53.1532 32.1158 52.9487 42.5976L52.9237 43.8786L49.9968 43.8215L51.6934 53.4658L49.0826 53.4149L47.386 43.7705L46.5186 43.7536C44.4261 43.7315 42.4262 42.8871 40.9509 41.403C39.6169 40.0758 38.6711 38.2771 38.2156 36.2017L38.2115 36.183L36.2198 25.6117L38.837 25.6628L40.7225 35.6703C41.3049 38.2991 43.1447 41.1248 46.5686 41.1916L50.4069 41.2665C50.5142 32.1967 49.7935 26.8042 48.0948 23.8704C46.6692 21.4078 44.5328 20.5018 39.9348 20.4109L31.0127 20.3649C30.8087 20.364 30.6075 20.4118 30.4256 20.5042C30.2438 20.5967 30.0866 20.7311 29.9671 20.8964L24.4947 28.4801L17.3218 29.5322L17.2953 30.89L18.3635 37.272C18.6788 39.1556 19.2618 40.1127 21.7228 40.4572L31.8014 42.3846L31.6597 53.0748L29.0977 53.0248L29.2107 44.4977L21.3349 42.9904C19.549 42.7354 18.2394 42.1327 17.332 41.1484C16.5563 40.3068 16.095 39.2421 15.8361 37.695L14.7287 31.0781L14.8022 27.3119L23.0514 26.102Z" fill="white"/>
</svg>
